<svg width="176" height="176" viewBox="0 0 176 176" fill="none" xmlns="http://www.w3.org/2000/svg">
<g clip-path="url(#clip0_21_3)">
<rect width="176" height="176" rx="5" fill="white"/>
<path d="M176.043 0H-0.0429688V176H176.043V0Z" fill="url(#paint0_linear_21_3)"/>
<path d="M45.4023 64.8811V27.27H130.598V35.1209H125.68C96.9578 35.1209 57.6693 36.262 47.0341 65.1664C46.9086 65.4973 46.6005 65.7255 46.2468 65.7255C45.7789 65.7255 45.4023 65.3489 45.4023 64.8811Z" fill="#DBD8D2"/>
<path d="M130.598 148.719H101.603C105.859 127.734 117.578 84.8278 128.978 51.3818C129.092 51.0394 129.411 50.8226 129.765 50.8226C130.222 50.8226 130.598 51.1992 130.598 51.6556V148.73V148.719Z" fill="#DBD8D2"/>
<path d="M89.2439 96.1817C86.7677 105.699 78.0724 110.446 69.1831 110.446C56.163 110.446 46.338 98.2243 45.4366 81.2788C45.4137 80.8337 45.7789 80.4572 46.2239 80.4572C46.5891 80.4572 46.8972 80.7082 46.9885 81.0506C49.9896 92.8953 57.8975 97.6309 66.4559 97.6309C79.0766 97.6309 86.916 85.4438 80.3432 73.4736C80.1492 73.1312 80.2177 72.6976 80.5144 72.4352C80.8339 72.1499 81.3246 72.1613 81.6327 72.458C88.6049 79.2134 91.2294 88.4336 89.2439 96.1703V96.1817Z" fill="#DBD8D2"/>
</g>
<defs>
<linearGradient id="paint0_linear_21_3" x1="28.5532" y1="148.756" x2="174.405" y2="114.302" gradientUnits="userSpaceOnUse">
<stop stop-color="#001D32"/>
<stop offset="0.1" stop-color="#001B37"/>
<stop offset="0.24" stop-color="#031848"/>
<stop offset="0.39" stop-color="#071263"/>
<stop offset="0.55" stop-color="#0D0A88"/>
<stop offset="0.61" stop-color="#100798"/>
<stop offset="0.99" stop-color="#1070CF"/>
</linearGradient>
<clipPath id="clip0_21_3">
<rect width="176" height="176" rx="5" fill="white"/>
</clipPath>
</defs>
</svg>
