<svg width="1046" height="155" viewBox="0 0 1046 155" fill="none" xmlns="http://www.w3.org/2000/svg">
<path d="M423.323 151.973H400.655V98.3669C400.655 97.8325 401.09 97.3966 401.625 97.3966C402.089 97.3966 402.483 97.7341 402.567 98.1841C407.222 122.878 414.394 141.004 423.323 151.959V151.973Z" fill="#DBD8D2"/>
<path d="M469.969 93.0374C460.097 93.0374 449.648 88.3546 442.308 80.6624C441.97 80.3109 441.956 79.7624 442.251 79.3827C442.547 79.0171 443.039 78.9187 443.461 79.1296C447.286 81.0562 452.264 82.7437 458.325 82.7577C471.965 82.7859 482.555 70.2421 482.555 54.5765C482.555 38.9109 471.586 23.0343 449.944 23.0343C430.959 23.0343 408.262 38.0249 402.553 77.2734C402.483 77.7234 402.103 78.0749 401.639 78.0749C401.119 78.0749 400.683 77.639 400.711 77.1046C402.876 25.2702 431.944 1.16711 461.236 1.16711C487.49 1.16711 509.583 20.9671 509.583 49.978C509.583 75.3046 490.247 93.0374 469.983 93.0374H469.969Z" fill="#DBD8D2"/>
<path d="M484.242 154.28C459.759 154.28 433.589 127.786 422.873 89.9437C422.761 89.5218 422.944 89.0718 423.309 88.8468C423.787 88.5655 424.392 88.7483 424.645 89.2546C445.57 130.865 501.483 148.373 496.111 104.442C496.04 103.88 496.476 103.387 497.039 103.387C497.362 103.387 497.672 103.556 497.84 103.823C502.355 111.22 506.798 122.878 506.798 130.317C506.798 144.83 497.587 154.266 484.228 154.266L484.242 154.28Z" fill="#DBD8D2"/>
<path d="M0 48.6563V2.30627H104.991V11.9813H98.9297C63.5344 11.9813 15.1172 13.3875 2.01093 49.0078C1.85624 49.4156 1.47655 49.6969 1.04061 49.6969C0.464049 49.6969 0 49.2328 0 48.6563Z" fill="#DBD8D2"/>
<path d="M104.991 151.973H69.2578C74.5031 126.113 88.9453 73.2375 102.994 32.0203C103.134 31.5985 103.528 31.3313 103.964 31.3313C104.527 31.3313 104.991 31.7953 104.991 32.3578V151.988V151.973Z" fill="#DBD8D2"/>
<path d="M54.028 87.2297C50.9764 98.9578 40.2608 104.808 29.3061 104.808C13.2608 104.808 1.15296 89.7468 0.0420221 68.864C0.0138971 68.3156 0.463901 67.8515 1.01234 67.8515C1.46234 67.8515 1.84204 68.1609 1.95454 68.5828C5.65298 83.1796 15.3983 89.0156 25.9452 89.0156C41.4983 89.0156 51.1592 73.9968 43.0592 59.2452C42.8201 58.8234 42.9045 58.289 43.2701 57.9656C43.6639 57.614 44.2686 57.6281 44.6483 57.9937C53.2405 66.3187 56.4749 77.6812 54.028 87.2156V87.2297Z" fill="#DBD8D2"/>
<path d="M373.021 2.31995C366.342 52.9731 350.001 154.293 301.64 154.293C274.049 154.293 262.265 119.517 262.04 87.0887C262.04 86.5684 262.462 86.1465 262.982 86.1465C263.446 86.1465 263.854 86.4981 263.91 86.9621C265.724 100.026 273.206 123.215 291.698 123.215C327.163 123.215 355.753 46.9965 363.121 2.33398H373.021V2.31995Z" fill="#DBD8D2"/>
<path d="M348.581 151.973C357.511 141.019 366.412 122.878 371.109 98.1984C371.194 97.7484 371.587 97.4109 372.051 97.4109C372.586 97.4109 373.022 97.8468 373.022 98.3812V151.987H348.581V151.973Z" fill="#DBD8D2"/>
<path d="M294.187 2.32035C280.181 12.0657 267.173 33.511 263.925 54.2391C263.854 54.7031 263.461 55.0406 262.983 55.0406C262.462 55.0406 262.026 54.6188 262.026 54.0844V2.30627H294.173L294.187 2.32035Z" fill="#DBD8D2"/>
<path d="M226.139 72.8438C225.717 73.1813 225.141 73.1813 224.705 72.8438C198.886 53.4657 149.92 61.8188 127.673 151.27C127.575 151.678 127.209 151.959 126.787 151.959C126.225 151.959 125.803 151.467 125.887 150.919C135.858 85.0782 178.284 9.16882 187.903 1.3782C188.592 0.914136 189.281 0.914136 189.984 1.3782C195.455 5.24539 216.703 46.097 226.519 71.4938C226.702 71.972 226.547 72.5063 226.153 72.8298L226.139 72.8438Z" fill="#DBD8D2"/>
<path d="M217.013 121.795C217.069 103.05 194.766 94.5845 181.842 107.874C181.491 108.239 180.928 108.281 180.534 107.972L180.492 107.944C180.113 107.649 180.014 107.114 180.253 106.706C194.006 83.5313 234.619 85.7111 248.217 152.002H183.488C182.981 152.002 182.559 151.58 182.559 151.074C182.559 150.595 182.925 150.202 183.403 150.16C201.066 148.374 216.956 139.345 217.013 121.824V121.795Z" fill="#DBD8D2"/>
<path d="M623.799 72.8438C623.377 73.1813 622.8 73.1813 622.364 72.8438C596.545 53.4657 547.58 61.8188 525.333 151.27C525.234 151.678 524.869 151.959 524.447 151.959C523.884 151.959 523.463 151.467 523.547 150.919C533.517 85.0782 575.944 9.16882 585.563 1.3782C586.252 0.914136 586.941 0.914136 587.644 1.3782C593.114 5.24539 614.363 46.097 624.178 71.4938C624.361 71.972 624.206 72.5063 623.813 72.8298L623.799 72.8438Z" fill="#DBD8D2"/>
<path d="M614.672 121.795C614.728 103.05 592.425 94.5845 579.501 107.874C579.15 108.239 578.587 108.281 578.194 107.972L578.151 107.944C577.772 107.649 577.673 107.114 577.912 106.706C591.665 83.5313 632.278 85.7111 645.876 152.002H581.147C580.64 152.002 580.219 151.58 580.219 151.074C580.219 150.595 580.584 150.202 581.062 150.16C598.725 148.374 614.615 139.345 614.672 121.824V121.795Z" fill="#DBD8D2"/>
<path d="M1023.3 72.8438C1022.88 73.1813 1022.3 73.1813 1021.87 72.8438C996.047 53.4657 947.081 61.8188 924.834 151.27C924.736 151.678 924.37 151.959 923.948 151.959C923.386 151.959 922.964 151.467 923.048 150.919C933.019 85.0782 975.445 9.16882 985.064 1.3782C985.753 0.914136 986.442 0.914136 987.145 1.3782C992.616 5.24539 1013.86 46.097 1023.68 71.4938C1023.86 71.972 1023.71 72.5063 1023.31 72.8298L1023.3 72.8438Z" fill="#DBD8D2"/>
<path d="M1014.17 121.795C1014.23 103.05 991.926 94.5845 979.003 107.874C978.651 108.239 978.089 108.281 977.695 107.972L977.653 107.944C977.273 107.649 977.175 107.114 977.414 106.706C991.167 83.5313 1031.78 85.7111 1045.38 152.002H980.648C980.142 152.002 979.72 151.58 979.72 151.074C979.72 150.595 980.086 150.202 980.564 150.16C998.226 148.374 1014.12 139.345 1014.17 121.824V121.795Z" fill="#DBD8D2"/>
<path d="M687.6 2.32035C678.67 13.275 669.769 31.4157 665.072 56.0953C664.987 56.5453 664.594 56.8828 664.129 56.8828C663.595 56.8828 663.159 56.4469 663.159 55.9125V2.30627H687.6V2.32035Z" fill="#DBD8D2"/>
<path d="M663.159 151.973C669.839 101.32 686.18 0 734.54 0C762.131 0 773.915 34.7765 774.14 67.2047C774.14 67.725 773.719 68.1469 773.198 68.1469C772.734 68.1469 772.326 67.7953 772.27 67.3312C770.456 54.2672 762.975 31.0781 744.483 31.0781C709.017 31.0781 680.428 107.297 673.059 151.959H663.159V151.973Z" fill="#DBD8D2"/>
<path d="M741.979 151.973C755.986 142.228 768.994 120.783 772.242 100.055C772.312 99.5906 772.706 99.2531 773.184 99.2531C773.704 99.2531 774.14 99.6749 774.14 100.209V151.987H741.994L741.979 151.973Z" fill="#DBD8D2"/>
<path d="M912.192 103.626C912.192 116.058 907.354 129.178 898.607 137.939C888.482 148.992 872.592 154.294 856.476 154.294C841.275 154.294 826.312 149.456 815.034 140.02C803.067 129.431 798.004 112.612 798.004 99.2671C798.004 75.0796 814.781 52.017 839.517 44.6624C839.911 44.5499 840.332 44.7046 840.557 45.028C840.881 45.5061 840.712 46.1389 840.206 46.4061C824.892 54.1968 813.895 70.692 813.895 91.2092C813.895 117.689 833.92 134.198 857.418 134.198C875.151 134.198 891.492 123.201 891.492 104.33C891.492 91.6592 882.154 80.9436 868.795 80.9436C865.111 80.9436 859.781 82.5748 855.9 86.0483C855.492 86.3998 854.887 86.3858 854.508 86.0061C854.184 85.6827 854.114 85.1764 854.339 84.7827C860.161 74.8545 870.314 69.3421 881.114 69.3421C898.143 69.3421 912.192 83.8546 912.192 103.655V103.626Z" fill="#DBD8D2"/>
<path d="M908.283 41.2312C881.592 10.7015 827.339 8.46556 803.531 39.2343C803.278 39.5718 802.828 39.6984 802.448 39.5437C801.914 39.3468 801.675 38.714 801.942 38.2218C812.095 19.0124 834.82 1.16711 861.553 1.16711C881.128 1.16711 892.87 6.00463 908.297 13.8374V41.2312H908.283Z" fill="#DBD8D2"/>
</svg>
